<svg version="1.1" xmlns="http://www.w3.org/2000/svg" xmlns:xlink="http://www.w3.org/1999/xlink" x="0px" y="0px" viewBox="0 0 1920 1080">

        <polygon class="dash0" points="560.5,68.5 865.5,459.5 865.5,584.5 635.5,286.5 636.5,814.5 737.5,727.5 785.5,795.5 560.5,979.5 "/>
        <polygon class="d-solid" points="560.5,68.5 865.5,459.5 865.5,584.5 635.5,286.5 636.5,814.5 737.5,727.5 785.5,795.5 560.5,979.5 "/>
        
        <polygon class="dash1" points="757.5,672.5 933.5,891.5 1244.5,460.5 1244.5,320.5 936.5,747.5 757.5,547.5 "/>
        <polygon class="v-solid" points="757.5,672.5 933.5,891.5 1244.5,460.5 1244.5,320.5 936.5,747.5 757.5,547.5 "/>
        
        <polygon class="dash2" points="1288.5,152.5 1288.5,906.5 1370.5,987.5 1370.5,56.5 "/>
        
        </svg>